<?xml version="1.0" encoding="UTF-8" standalone="no"?>
<svg
   role="img"
   viewBox="0 0 24 24"
   version="1.1"
   id="svg1"
   sodipodi:docname="KU_SkillForge.svg"
   inkscape:version="1.3.2 (091e20ef0f, 2023-11-25, custom)"
   xmlns:inkscape="http://www.inkscape.org/namespaces/inkscape"
   xmlns:sodipodi="http://sodipodi.sourceforge.net/DTD/sodipodi-0.dtd"
   xmlns="http://www.w3.org/2000/svg"
   xmlns:svg="http://www.w3.org/2000/svg"
   xmlns:rdf="http://www.w3.org/1999/02/22-rdf-syntax-ns#"
   xmlns:cc="http://creativecommons.org/ns#"
   xmlns:dc="http://purl.org/dc/elements/1.1/">
  <defs
     id="defs1" />
  <sodipodi:namedview
     id="namedview1"
     pagecolor="#ffffff"
     bordercolor="#000000"
     borderopacity="0.25"
     inkscape:showpageshadow="2"
     inkscape:pageopacity="0.0"
     inkscape:pagecheckerboard="0"
     inkscape:deskcolor="#d1d1d1"
     inkscape:zoom="23.805928"
     inkscape:cx="9.913497"
     inkscape:cy="12.643909"
     inkscape:window-width="1920"
     inkscape:window-height="1004"
     inkscape:window-x="0"
     inkscape:window-y="0"
     inkscape:window-maximized="1"
     inkscape:current-layer="svg1" />
  <title
     id="title1">Alchemy</title>
  <path
     id="path1"
     d="M 11.994141 1.7636719 A 0.4276 0.4276 0 0 0 11.783203 1.8222656 A 0.416 0.416 0 0 0 11.628906 1.9746094 L 4.0332031 14.869141 A 0.416 0.416 0 0 0 3.9765625 15.078125 A 0.4106 0.4106 0 0 0 4.0351562 15.285156 A 0.4185 0.4185 0 0 0 4.1894531 15.4375 A 0.4358 0.4358 0 0 0 4.4023438 15.494141 L 8.9511719 15.494141 A 0.8584 0.8584 0 0 0 9.375 15.382812 A 0.8444 0.8444 0 0 0 9.6875 15.078125 L 14.638672 6.6660156 C 14.713172 6.539616 14.751953 6.3959998 14.751953 6.25 A 0.8191 0.8191 0 0 0 14.638672 5.8339844 L 12.365234 1.9707031 A 0.4214 0.4214 0 0 0 12.208984 1.8183594 A 0.4383 0.4383 0 0 0 11.994141 1.7636719 z M 15.980469 8.5058594 A 0.435 0.435 0 0 0 15.767578 8.5625 A 0.4235 0.4235 0 0 0 15.611328 8.7148438 L 13.335938 12.574219 A 0.8264 0.8264 0 0 0 13.222656 12.992188 A 0.8194 0.8194 0 0 0 13.335938 13.408203 L 18.289062 21.820312 A 0.8389 0.8389 0 0 0 18.599609 22.125 A 0.8586 0.8586 0 0 0 19.023438 22.236328 L 23.574219 22.236328 C 23.649119 22.236728 23.722109 22.216186 23.787109 22.179688 A 0.4188 0.4188 0 0 0 23.943359 22.027344 A 0.4083 0.4083 0 0 0 23.941406 21.609375 L 16.347656 8.7148438 A 0.4235 0.4235 0 0 0 16.191406 8.5625 A 0.4277 0.4277 0 0 0 15.980469 8.5058594 z M 15.755859 10.644531 C 15.783442 10.646551 15.810539 10.653237 15.837891 10.662109 C 15.947298 10.697599 16.045414 10.779849 16.130859 10.910156 C 16.174388 10.976539 16.206529 11.044601 16.230469 11.113281 C 16.255639 11.181155 16.27313 11.242823 16.28125 11.300781 L 16.107422 11.337891 C 16.099685 11.283197 16.085292 11.226855 16.0625 11.167969 C 16.040938 11.108278 16.013519 11.052356 15.980469 11.001953 C 15.933716 10.930653 15.879723 10.88203 15.818359 10.855469 C 15.756996 10.828908 15.687545 10.840648 15.611328 10.890625 C 15.568302 10.918838 15.539198 10.951384 15.523438 10.986328 C 15.508485 11.022504 15.502918 11.066102 15.507812 11.119141 C 15.513938 11.171375 15.523849 11.237207 15.537109 11.316406 C 15.553553 11.405823 15.56443 11.487534 15.568359 11.560547 C 15.574323 11.633982 15.563971 11.699289 15.539062 11.757812 C 15.514961 11.817567 15.464889 11.873851 15.388672 11.923828 C 15.271887 12.000406 15.154999 12.021053 15.039062 11.986328 C 14.923932 11.952834 14.817898 11.86019 14.71875 11.708984 C 14.672803 11.638913 14.634751 11.566631 14.603516 11.492188 C 14.574315 11.418167 14.554954 11.35497 14.548828 11.302734 L 14.703125 11.203125 C 14.713282 11.261509 14.730349 11.327861 14.755859 11.404297 C 14.782601 11.47993 14.818947 11.551529 14.863281 11.619141 C 14.987418 11.808454 15.125633 11.852713 15.279297 11.751953 C 15.321093 11.724546 15.348027 11.695441 15.361328 11.662109 C 15.374629 11.628778 15.377985 11.582203 15.371094 11.523438 C 15.366237 11.465094 15.355058 11.384447 15.337891 11.283203 C 15.327393 11.216257 15.320376 11.149744 15.316406 11.082031 C 15.312438 11.01432 15.323854 10.949313 15.349609 10.886719 C 15.37617 10.825352 15.427689 10.768727 15.503906 10.71875 C 15.588729 10.66313 15.673112 10.638473 15.755859 10.644531 z M 16.650391 11.560547 L 16.759766 11.726562 L 16.083984 12.167969 C 16.045876 12.192957 16.000586 12.220971 15.945312 12.251953 C 15.892073 12.283356 15.843462 12.312131 15.798828 12.337891 L 15.800781 12.341797 C 15.846831 12.345004 15.889447 12.348742 15.927734 12.353516 C 15.968059 12.358715 16.008419 12.363515 16.050781 12.369141 L 16.652344 12.462891 L 16.783203 12.662109 L 16.099609 12.548828 L 15.8125 13.335938 L 15.685547 13.144531 L 15.929688 12.501953 L 15.666016 12.443359 L 15.359375 12.644531 L 15.25 12.478516 L 16.650391 11.560547 z M 16.953125 12.919922 L 17.273438 13.408203 L 16.423828 13.966797 L 16.611328 14.314453 L 16.501953 14.386719 L 15.945312 13.539062 L 16.054688 13.466797 L 16.314453 13.800781 L 17.025391 13.333984 L 16.837891 12.996094 L 16.953125 12.919922 z M 17.484375 12.972656 C 17.502754 12.968515 17.520635 12.969591 17.537109 12.974609 C 17.572096 12.985071 17.600136 13.007101 17.621094 13.039062 C 17.642052 13.071024 17.649691 13.103647 17.644531 13.138672 C 17.641408 13.174123 17.618692 13.205821 17.578125 13.232422 C 17.540017 13.25741 17.503736 13.264368 17.46875 13.253906 C 17.434572 13.244677 17.407677 13.223368 17.386719 13.191406 C 17.365761 13.159445 17.356976 13.1261 17.361328 13.089844 C 17.366488 13.054819 17.387673 13.024988 17.425781 13 C 17.446065 12.9867 17.465996 12.976797 17.484375 12.972656 z M 18.078125 13.738281 L 18.417969 14.253906 L 17.154297 15.082031 L 17.337891 15.421875 L 17.226562 15.494141 L 16.669922 14.644531 L 16.78125 14.572266 L 17.044922 14.916016 L 18.169922 14.177734 L 17.964844 13.8125 L 18.078125 13.738281 z M 18.804688 14.84375 L 19.142578 15.359375 L 17.878906 16.1875 L 18.0625 16.527344 L 17.951172 16.599609 L 17.396484 15.751953 L 17.505859 15.679688 L 17.771484 16.021484 L 18.896484 15.285156 L 18.689453 14.917969 L 18.804688 14.84375 z M 19.455078 16.021484 L 19.962891 16.796875 L 19.816406 16.894531 L 19.417969 16.285156 L 18.953125 16.589844 L 19.328125 17.164062 L 19.181641 17.259766 L 18.804688 16.685547 L 18.248047 17.050781 L 18.138672 16.884766 L 19.455078 16.021484 z M 3.0644531 17.330078 A 0.8573 0.8573 0 0 0 2.640625 17.441406 A 0.8384 0.8384 0 0 0 2.3300781 17.746094 L 0.056640625 21.607422 A 0.4122 0.4122 0 0 0 0 21.816406 A 0.4059 0.4059 0 0 0 0.056640625 22.023438 A 0.4222 0.4222 0 0 0 0.2109375 22.177734 A 0.4319 0.4319 0 0 0 0.42382812 22.232422 L 15.613281 22.232422 A 0.432 0.432 0 0 0 15.826172 22.177734 A 0.4228 0.4228 0 0 0 15.980469 22.023438 A 0.4059 0.4059 0 0 0 16.037109 21.816406 A 0.4123 0.4123 0 0 0 15.980469 21.607422 L 13.705078 17.746094 A 0.8385 0.8385 0 0 0 13.394531 17.441406 A 0.8645 0.8645 0 0 0 12.96875 17.330078 L 3.0644531 17.330078 z M 19.708984 17.460938 C 19.780902 17.463549 19.847292 17.481099 19.908203 17.513672 C 19.990646 17.556295 20.060762 17.620979 20.117188 17.707031 C 20.173613 17.793083 20.205859 17.882733 20.212891 17.976562 C 20.221152 18.069586 20.19886 18.160685 20.148438 18.25 C 20.100052 18.33974 20.017175 18.423422 19.900391 18.5 C 19.786065 18.574966 19.678183 18.616313 19.576172 18.626953 C 19.47539 18.636787 19.385178 18.620749 19.302734 18.578125 C 19.221521 18.534695 19.152129 18.470817 19.095703 18.384766 C 19.039277 18.298714 19.006308 18.208258 18.998047 18.115234 C 18.991821 18.022634 19.014837 17.930389 19.064453 17.839844 C 19.116105 17.749723 19.198898 17.667569 19.314453 17.591797 C 19.428779 17.516831 19.536741 17.473951 19.636719 17.462891 C 19.661914 17.460432 19.685012 17.460067 19.708984 17.460938 z M 19.740234 17.646484 C 19.643221 17.6433 19.536706 17.681235 19.419922 17.757812 C 19.303137 17.83439 19.226856 17.918633 19.189453 18.011719 C 19.15328 18.103998 19.165642 18.197084 19.228516 18.292969 C 19.29139 18.388855 19.37246 18.439027 19.470703 18.441406 C 19.570175 18.442979 19.678137 18.404703 19.794922 18.328125 C 19.911706 18.251547 19.988493 18.167645 20.023438 18.076172 C 20.060419 17.985124 20.04725 17.892762 19.984375 17.796875 C 19.921501 17.700989 19.839284 17.650093 19.740234 17.646484 z M 8.6445312 18.005859 L 9.1035156 18.005859 L 7.640625 21.820312 L 7.1796875 21.820312 L 8.6445312 18.005859 z M 20.558594 18.419922 L 20.822266 18.822266 L 20.65625 18.962891 L 20.662109 18.970703 C 20.749833 18.962401 20.82302 18.967524 20.882812 18.986328 C 20.944639 19.005554 20.998634 19.049575 21.042969 19.117188 C 21.070375 19.158983 21.089932 19.197575 21.103516 19.234375 C 21.117906 19.272405 21.127374 19.308647 21.132812 19.34375 L 20.958984 19.396484 C 20.957151 19.369561 20.94981 19.338522 20.939453 19.306641 C 20.930325 19.273954 20.916637 19.243624 20.896484 19.212891 C 20.861822 19.160028 20.813697 19.12427 20.753906 19.105469 C 20.694113 19.086664 20.629227 19.082784 20.558594 19.095703 C 20.487958 19.108618 20.419898 19.138112 20.353516 19.181641 L 19.996094 19.416016 L 20.15625 19.720703 L 20.046875 19.792969 L 19.550781 19.037109 L 19.660156 18.964844 L 19.886719 19.248047 L 20.597656 18.78125 L 20.443359 18.494141 L 20.558594 18.419922 z M 6.0585938 18.572266 L 6.0585938 18.988281 L 4.3164062 19.945312 L 6.0585938 20.785156 L 6.0585938 21.201172 L 3.8144531 20.095703 L 3.8144531 19.828125 L 6.0585938 18.572266 z M 10.226562 18.572266 L 12.470703 19.828125 L 12.470703 20.095703 L 10.226562 21.201172 L 10.226562 20.785156 L 11.96875 19.945312 L 10.226562 18.988281 L 10.226562 18.572266 z M 21.207031 19.667969 C 21.346788 19.680042 21.456842 19.74961 21.539062 19.875 C 21.582591 19.941383 21.607537 20.004459 21.615234 20.064453 C 21.624162 20.123643 21.614917 20.187162 21.587891 20.255859 L 21.595703 20.265625 L 21.730469 20.207031 L 21.818359 20.339844 L 20.804688 21.005859 C 20.663317 21.098559 20.532921 21.131245 20.414062 21.105469 C 20.295203 21.079692 20.183598 20.988877 20.082031 20.833984 C 20.037697 20.766372 20.002538 20.698009 19.976562 20.628906 C 19.950163 20.561839 19.932073 20.497699 19.919922 20.433594 L 20.066406 20.335938 C 20.070375 20.403649 20.08684 20.474084 20.115234 20.546875 C 20.143205 20.621701 20.176617 20.686868 20.212891 20.742188 C 20.286244 20.854055 20.363433 20.914235 20.445312 20.923828 C 20.525962 20.934227 20.612156 20.909259 20.703125 20.849609 L 20.738281 20.828125 L 20.779297 20.798828 C 20.793623 20.791188 20.81582 20.779759 20.845703 20.763672 L 20.841797 20.757812 C 20.768825 20.756442 20.70655 20.736942 20.65625 20.703125 C 20.607984 20.66973 20.562252 20.621792 20.519531 20.556641 C 20.434086 20.426333 20.412173 20.29463 20.453125 20.164062 C 20.495306 20.032689 20.596049 19.915338 20.755859 19.810547 C 20.916899 19.70495 21.06808 19.657125 21.207031 19.667969 z M 21.193359 19.859375 C 21.099992 19.85907 20.993519 19.897566 20.873047 19.976562 C 20.750116 20.057171 20.670901 20.141539 20.634766 20.228516 C 20.600668 20.315918 20.61452 20.406575 20.675781 20.5 C 20.729789 20.582364 20.797368 20.628573 20.880859 20.640625 C 20.96558 20.65187 21.067533 20.618399 21.185547 20.541016 L 21.224609 20.515625 C 21.359834 20.426956 21.441182 20.340543 21.46875 20.253906 C 21.496318 20.167269 21.482547 20.081638 21.427734 19.998047 C 21.366472 19.904619 21.287955 19.858872 21.193359 19.859375 z M 21.880859 20.798828 C 21.955154 20.80054 22.024958 20.81896 22.089844 20.851562 C 22.177587 20.894227 22.251238 20.96126 22.3125 21.054688 C 22.397139 21.183765 22.421947 21.312834 22.386719 21.441406 C 22.352297 21.571208 22.262246 21.684179 22.117188 21.779297 L 22.042969 21.828125 L 21.572266 21.111328 C 21.487822 21.170207 21.42949 21.230411 21.398438 21.292969 C 21.368189 21.356753 21.359367 21.422143 21.371094 21.488281 C 21.384858 21.554847 21.413845 21.622567 21.458984 21.691406 C 21.494451 21.745495 21.536524 21.794702 21.585938 21.837891 C 21.635352 21.88108 21.690753 21.920294 21.75 21.957031 L 21.601562 22.052734 C 21.539896 22.012308 21.485643 21.969216 21.4375 21.919922 C 21.389357 21.870628 21.349455 21.819933 21.316406 21.769531 C 21.212421 21.61095 21.173541 21.456795 21.201172 21.308594 C 21.230032 21.159587 21.326736 21.03299 21.490234 20.925781 C 21.598414 20.854846 21.702676 20.813374 21.804688 20.802734 C 21.830498 20.799873 21.856095 20.798257 21.880859 20.798828 z M 21.908203 20.984375 C 21.844386 20.982053 21.777297 20.995769 21.707031 21.027344 L 22.066406 21.576172 C 22.150045 21.516067 22.201702 21.448324 22.222656 21.373047 C 22.244423 21.299008 22.229324 21.221255 22.177734 21.142578 C 22.123727 21.060214 22.054961 21.010769 21.970703 20.992188 C 21.950147 20.987647 21.929475 20.985149 21.908203 20.984375 z " />
  <metadata
     id="metadata5">
    <rdf:RDF>
      <cc:Work
         rdf:about="">
        <dc:title>Alchemy</dc:title>
      </cc:Work>
    </rdf:RDF>
  </metadata>
</svg>
